<?xml version="1.0" standalone="no"?>
<!DOCTYPE svg PUBLIC "-//W3C//DTD SVG 20010904//EN"
 "http://www.w3.org/TR/2001/REC-SVG-20010904/DTD/svg10.dtd">
<svg version="1.0" xmlns="http://www.w3.org/2000/svg"
 width="700.000000pt" height="700.000000pt" viewBox="0 0 700.000000 700.000000"
 preserveAspectRatio="xMidYMid meet">
<metadata>
Created by potrace 1.11, written by Peter Selinger 2001-2013
</metadata>
<g transform="translate(0.000000,700.000000) scale(0.100000,-0.100000)"
fill="#000000" stroke="none">
<path d="M3427 6424 c-13 -7 -33 -26 -43 -41 -18 -26 -19 -54 -20 -492 0 -402
2 -467 15 -494 44 -86 185 -92 238 -10 17 25 18 66 19 483 1 250 -3 470 -8
488 -13 47 -72 84 -131 81 -25 -2 -56 -8 -70 -15z"/>
<path d="M1395 5582 c-75 -17 -128 -110 -103 -182 13 -39 657 -677 691 -685
70 -18 157 35 172 105 15 70 8 79 -324 411 -174 173 -327 323 -341 332 -28 18
-66 26 -95 19z"/>
<path d="M5541 5582 c-25 -4 -650 -621 -685 -676 -14 -21 -16 -39 -11 -72 12
-82 94 -139 172 -119 36 8 669 636 689 683 21 49 9 97 -37 143 -22 22 -47 39
-56 40 -10 0 -25 2 -33 3 -8 1 -26 0 -39 -2z"/>
<path d="M3508 5135 c-2 -1 -46 -5 -98 -8 -325 -19 -630 -159 -876 -402 -212
-210 -337 -457 -389 -770 -20 -118 -13 -365 13 -485 32 -144 88 -291 154 -403
201 -340 365 -709 444 -998 41 -154 58 -191 111 -243 75 -76 139 -94 335 -95
88 -1 97 -3 103 -21 17 -54 98 -59 123 -7 12 25 16 26 83 24 63 -1 72 -4 79
-23 11 -27 65 -47 90 -34 9 5 24 20 32 32 15 22 20 23 134 22 121 -2 202 13
235 42 8 8 19 14 23 14 14 0 77 73 97 113 17 33 32 83 69 227 47 185 241 615
382 850 85 142 154 284 174 360 2 8 11 40 19 70 40 147 57 412 35 531 -5 24
-14 73 -21 109 -44 232 -190 501 -371 685 -223 225 -549 378 -851 401 -40 3
-84 7 -99 9 -15 1 -28 2 -30 0z"/>
<path d="M2873 1625 c-50 -21 -64 -53 -65 -142 -2 -94 13 -131 62 -155 32 -17
84 -18 645 -18 586 0 611 1 642 20 43 26 54 51 55 123 1 105 -1 116 -31 149
l-29 33 -624 2 c-512 2 -629 0 -655 -12z"/>
<path d="M2863 1221 c-46 -28 -56 -55 -56 -146 0 -93 16 -129 70 -152 51 -21
1233 -19 1274 3 50 26 63 56 62 154 -1 85 -2 90 -32 122 l-31 33 -627 2 c-607
3 -629 2 -660 -16z"/>
<path d="M3001 822 c-12 -4 -4 -76 16 -141 20 -64 71 -121 111 -122 15 0 196
-1 403 -2 369 0 377 0 407 21 46 34 89 139 87 217 l-1 30 -507 0 c-278 0 -511
-1 -516 -3z"/>
</g>
</svg>
